<svg width="130" height="140" viewBox="0 0 130 140" fill="none" xmlns="http://www.w3.org/2000/svg">
<path d="M6 2.5H124C125.933 2.5 127.5 4.067 127.5 6V134C127.5 135.933 125.933 137.5 124 137.5H6C4.067 137.5 2.5 135.933 2.5 134V6C2.5 4.06701 4.06701 2.5 6 2.5Z" fill="#536DFE" stroke="white" stroke-width="5"/>
<rect x="23.5" y="22.5" width="84" height="14" rx="3.5" stroke="white" stroke-width="3"/>
<path d="M27 47.5H104C105.933 47.5 107.5 49.067 107.5 51V58C107.5 59.933 105.933 61.5 104 61.5H27C25.067 61.5 23.5 59.933 23.5 58V51C23.5 49.067 25.067 47.5 27 47.5Z" stroke="white" stroke-width="3"/>
<rect x="23.5" y="75.5" width="84" height="14" rx="3.5" stroke="white" stroke-width="3"/>
<rect x="23.5" y="103.5" width="84" height="14" rx="3.5" stroke="white" stroke-width="3"/>
</svg>
